<?xml version="1.0" encoding="utf-8"?>
<!-- Generator: Adobe Illustrator 21.0.0, SVG Export Plug-In . SVG Version: 6.00 Build 0)  -->
<svg version="1.1" id="Arte" xmlns="http://www.w3.org/2000/svg" xmlns:xlink="http://www.w3.org/1999/xlink" x="0px" y="0px"
	 viewBox="0 0 300 45" style="enable-background:new 0 0 300 45;" xml:space="preserve">
<style type="text/css">
	.st0{fill:#FFFFFF;}
</style>
<rect id="Fondp" width="300" height="45"/>
<g id="Pupila">
	<path class="st0" d="M37.4,21.9h1.3c0.9,0,1.8-0.1,1.8-1.2c0-1-0.8-1.1-1.6-1.1h-1.5V21.9z M33.9,16.9h5.8c3,0,4.1,2.2,4.1,3.8
		c0,2.7-1.8,3.9-4.4,3.9h-2v3.3h-3.4V16.9z"/>
	<path class="st0" d="M55.1,23.6c0,3.1-1.7,4.5-5.1,4.5c-3.4,0-5.1-1.5-5.1-4.5v-6.8h3.4v6c0,1.1,0,2.5,1.7,2.5
		c1.6,0,1.6-1.4,1.6-2.5v-6h3.4V23.6z"/>
	<path class="st0" d="M60.3,21.9h1.3c0.9,0,1.8-0.1,1.8-1.2c0-1-0.8-1.1-1.6-1.1h-1.5V21.9z M56.8,16.9h5.8c3,0,4.1,2.2,4.1,3.8
		c0,2.7-1.8,3.9-4.4,3.9h-2v3.3h-3.4V16.9z"/>
	<rect x="67.9" y="16.9" class="st0" width="3.4" height="11"/>
	<polygon class="st0" points="73.1,16.9 76.5,16.9 76.5,25.1 81.5,25.1 81.5,27.9 73.1,27.9 	"/>
	<path class="st0" d="M88.8,23.9l-1-3.4h0l-1.1,3.4H88.8z M86.1,16.9h3.4l4.1,11h-3.6l-0.5-1.6h-3.6l-0.5,1.6h-3.5L86.1,16.9z"/>
</g>
<g id="Barrio">
	<path class="st0" d="M161.2,29.8c-1.4,0-2.6,1.2-2.6,2.6c0,1.4,1.2,2.6,2.6,2.6c1.4,0,2.6-1.2,2.6-2.6
		C163.8,31,162.6,29.8,161.2,29.8 M159.6,32.4c0-0.8,0.7-1.5,1.5-1.5c0.2,0,0.5,0.1,0.7,0.2l-2.1,2.1
		C159.7,32.9,159.6,32.7,159.6,32.4 M161.2,33.9c-0.3,0-0.5-0.1-0.7-0.2l2.1-2.1c0.1,0.2,0.2,0.4,0.2,0.7
		C162.7,33.3,162,33.9,161.2,33.9"/>
	<path class="st0" d="M147.2,9.6L147.2,9.6c0-0.7-0.4-1-0.9-1.2c0.4-0.2,0.6-0.5,0.6-1.1v0c0-0.8-0.6-1.3-1.6-1.3h-2.3v4.9h2.3
		C146.5,10.9,147.2,10.5,147.2,9.6 M144.1,7h1.1c0.5,0,0.7,0.2,0.7,0.5v0c0,0.4-0.3,0.5-0.8,0.5h-1V7z M144.1,8.9h1.2
		c0.6,0,0.8,0.2,0.8,0.5v0c0,0.4-0.3,0.5-0.8,0.5h-1.3V8.9z"/>
	<path class="st0" d="M144,17.9h2.1l0.4,1.1h1.1l-2.1-4.9h-1l-2.1,4.9h1.1L144,17.9z M145,15.3l0.7,1.6h-1.3L145,15.3z"/>
	<path class="st0" d="M144.1,25.3h0.8l1.1,1.6h1.3l-1.2-1.7c0.6-0.2,1.1-0.7,1.1-1.5v0c0-1-0.7-1.6-1.8-1.6H143v4.9h1.1V25.3z
		 M144.1,23h1.1c0.5,0,0.8,0.2,0.8,0.7v0c0,0.4-0.3,0.7-0.8,0.7h-1.1V23z"/>
	<path class="st0" d="M152.2,25.3h0.8l1.1,1.6h1.3l-1.2-1.7c0.6-0.2,1.1-0.7,1.1-1.5v0c0-1-0.7-1.6-1.8-1.6h-2.2v4.9h1.1V25.3z
		 M152.2,23h1.1c0.5,0,0.8,0.2,0.8,0.7v0c0,0.4-0.3,0.7-0.8,0.7h-1.1V23z"/>
	<polygon class="st0" points="153.6,34.8 154.4,34.8 154.4,33.9 153.6,33.9 153.6,30.9 154.4,30.9 154.4,30 153.6,30 152.6,30 
		151.8,30 151.8,30.9 152.6,30.9 152.6,33.9 151.8,33.9 151.8,34.8 152.6,34.8 	"/>
	<path class="st0" d="M157.5,28.1v-7.2h3v-0.8h-11.1v-7.2h3.6v-0.8h-3.6V0h-0.8v4.1h-9.9v0.8h1.9v7.2h-5.7v0.8h5.7v15.1h-3.2v0.8
		h3.2h8V36h-2.6v0.8h2.6V45h0.8v-8.2h7.2v3.5h0.8v-3.5h8v-8h5.5v-0.8H157.5z M148.7,28.1h-7.2v-7.2h7.2V28.1z M148.7,20.1h-7.2v-7.2
		h7.2V20.1z M148.7,12.1h-7.2V4.9h7.2V12.1z M156.7,36h-7.2v-7.2h7.2V36z M156.7,28.1h-7.2v-7.2h7.2V28.1z M164.7,36h-7.2v-7.2h7.2
		h0V36z"/>
</g>
<g id="MADC">
	<path class="st0" d="M234.5,16.4V8.6c7.8,0.2,14.6,4.2,18.8,10.2h0.8c-4.2-6.6-11.4-10.9-19.6-10.9v0h-0.2l0,8.5L234.5,16.4z
		 M233.6,16.4V7.9h-0.1c-7,0-13.4,3.2-17.6,8.2c-0.1,0.1-0.2,0.2-0.3,0.3h0.9c4.2-4.7,10.2-7.7,17-7.8v7.8H233.6z"/>
	<polygon class="st0" points="244.7,14.2 245.9,16.3 243.5,16.3 	"/>
	<rect x="234.4" y="7.9" class="st0" width="0.4" height="8.5"/>
	<rect x="233.2" y="7.9" class="st0" width="0.4" height="8.5"/>
	<path class="st0" d="M222.2,18.6h3.3v9.2h-2.2l0.1-6.6l0-0.9l-0.1,0.3c-0.1,0.4-0.2,0.7-0.2,1l-1.7,6.2h-2l-1.6-5.9l-0.4-1.7
		c0,0.3,0,0.6,0,0.8c0,0.3,0,0.6,0,0.9l0.1,5.8h-2.2v-9.2h3.3l1.4,5.2l0.3,1.5c0.1-0.5,0.2-0.9,0.2-1.1L222.2,18.6z"/>
	<path class="st0" d="M229.8,18.6h2.4l3.3,9.2h-2.4l-0.4-1.5h-3.3l-0.4,1.5h-2.4L229.8,18.6z M232.1,24.7l-1.2-3.9
		c-0.1,0.4-0.2,0.9-0.4,1.4c-0.1,0.3-0.2,0.7-0.4,1.3c-0.2,0.6-0.3,1-0.4,1.2H232.1z"/>
	<path class="st0" d="M236.5,27.9v-9.2h2.9c0.5,0,1,0,1.4,0.1c0.4,0,0.9,0.1,1.3,0.3c0.5,0.2,0.9,0.4,1.2,0.7c0.4,0.4,0.8,0.9,1,1.5
		c0.2,0.6,0.3,1.2,0.3,1.9c0,0.7-0.1,1.3-0.2,1.8c-0.2,0.7-0.5,1.2-0.8,1.6c-0.4,0.4-0.8,0.7-1.2,0.9c-0.4,0.2-0.8,0.3-1.2,0.3
		c-0.4,0-0.7,0.1-1.1,0.1H236.5z M239.7,20.6h-0.9V26h0.7c0.6,0,1-0.1,1.4-0.2c0.4-0.1,0.7-0.4,1-0.8c0.3-0.4,0.4-1,0.4-1.8
		c0-0.4,0-0.7-0.1-1c-0.1-0.3-0.2-0.6-0.4-0.8c-0.3-0.4-0.6-0.6-0.9-0.7C240.6,20.6,240.2,20.6,239.7,20.6"/>
	<path class="st0" d="M251.8,24.8l1.8,0.9c-0.2,0.4-0.4,0.7-0.6,0.9s-0.4,0.5-0.8,0.7c-0.8,0.5-1.6,0.8-2.5,0.8
		c-0.8,0-1.5-0.2-2.2-0.6c-0.7-0.4-1.2-1-1.6-1.7c-0.4-0.7-0.6-1.6-0.6-2.6c0-0.7,0.1-1.3,0.3-1.9s0.5-1.1,0.9-1.6
		c0.4-0.4,0.9-0.8,1.4-1.1c0.5-0.3,1.1-0.4,1.8-0.4c1,0,1.9,0.3,2.6,0.9c0.4,0.4,0.8,0.8,1.2,1.5l-1.8,0.9c-0.2-0.4-0.4-0.7-0.7-1
		c-0.4-0.3-0.8-0.5-1.2-0.5c-0.4,0-0.7,0.1-1,0.2c-0.3,0.2-0.5,0.4-0.7,0.6c-0.2,0.3-0.3,0.6-0.4,0.9c-0.1,0.4-0.1,0.7-0.1,1.1
		c0,1,0.2,1.7,0.6,2.2c0.4,0.5,1,0.8,1.6,0.8c0.5,0,0.9-0.1,1.2-0.4C251.3,25.6,251.5,25.2,251.8,24.8"/>
</g>
</svg>
