<?xml version="1.0" encoding="utf-8"?>
<!-- Generator: Adobe Illustrator 21.0.0, SVG Export Plug-In . SVG Version: 6.00 Build 0)  -->
<svg version="1.1" id="Arte" xmlns="http://www.w3.org/2000/svg" xmlns:xlink="http://www.w3.org/1999/xlink" x="0px" y="0px"
	 viewBox="0 0 100 100" style="enable-background:new 0 0 100 100;" xml:space="preserve">
<style type="text/css">
	.st0{fill:#FF0000;}
	.st1{fill:#FFFFFF;}
</style>
<rect id="Fondo" class="st0" width="100" height="100"/>
<g id="Ins">
	<path class="st1" d="M60.8,29.4H39.2c-5.4,0-9.8,4.4-9.8,9.8v21.6c0,5.4,4.4,9.8,9.8,9.8h21.6c5.4,0,9.8-4.4,9.8-9.8V39.2
		C70.6,33.8,66.2,29.4,60.8,29.4z M39.2,33.1h21.6c3.3,0,6.1,2.7,6.1,6.1v3.9H54.1c-1.3-0.6-2.7-0.9-4.1-0.9s-2.9,0.3-4.1,0.9H33.1
		v-3.9C33.1,35.9,35.9,33.1,39.2,33.1z M54.8,51.9c0,2.7-2.2,4.8-4.8,4.8s-4.8-2.2-4.8-4.8c0-2.7,2.2-4.8,4.8-4.8
		S54.8,49.2,54.8,51.9z M60.8,66.9H39.2c-3.3,0-6.1-2.7-6.1-6.1v-14h8.6c-0.9,1.5-1.4,3.2-1.4,5c0,5.3,4.3,9.7,9.7,9.7
		s9.7-4.3,9.7-9.7c0-1.8-0.5-3.6-1.4-5h8.6v14C66.9,64.1,64.1,66.9,60.8,66.9z"/>
	<path class="st1" d="M59.3,41.3h3.3c0.7,0,1.3-0.6,1.3-1.3v-3.3c0-0.7-0.6-1.3-1.3-1.3h-3.3c-0.7,0-1.3,0.6-1.3,1.3V40
		C58,40.8,58.6,41.3,59.3,41.3z"/>
</g>
</svg>
