<?xml version="1.0" encoding="utf-8"?>
<!-- Generator: Adobe Illustrator 21.0.0, SVG Export Plug-In . SVG Version: 6.00 Build 0)  -->
<svg version="1.1" id="Arte" xmlns="http://www.w3.org/2000/svg" xmlns:xlink="http://www.w3.org/1999/xlink" x="0px" y="0px"
	 viewBox="0 0 100 100" style="enable-background:new 0 0 100 100;" xml:space="preserve">
<style type="text/css">
	.st0{fill:#FF0000;}
</style>
<g id="Logo_5_">
	<path class="st0" d="M58.1,83.7c0,0.6,0.4,0.8,0.6,0.8c0.1,0,0.3,0,0.4-0.2v-1.6c-0.2,0.1-0.4,0.2-0.6,0.3
		C58.3,83.2,58.1,83.4,58.1,83.7z"/>
	<path class="st0" d="M45.9,78.9c-0.3,0-0.4,0-0.5,0.1s-0.1,0.2-0.1,0.4v2.5h0.3c0.4,0,0.8-0.1,1-0.3c0.3-0.3,0.5-0.7,0.5-1.2
		C47.1,79.3,46.4,78.9,45.9,78.9z"/>
	<path class="st0" d="M37.8,83.7c0,0.6,0.4,0.8,0.6,0.8c0.1,0,0.3,0,0.4-0.2v-1.6c-0.2,0.1-0.4,0.2-0.6,0.3
		C38,83.2,37.8,83.4,37.8,83.7z"/>
	<path class="st0" d="M26.7,80.9c-0.4,0-0.8,0.5-0.8,1.7c0,1.3,0.4,2.2,1,2.2c0.4,0,0.8-0.3,0.8-1.8C27.7,81.7,27.4,80.9,26.7,80.9z
		"/>
	<path class="st0" d="M70.4,79.1c-0.7,0-0.9,1.5-0.9,2.8c0,1.4,0.2,2.9,0.9,2.9c0.7,0,0.8-1.5,0.8-2.9
		C71.3,80.5,71.1,79.1,70.4,79.1z"/>
	<path class="st0" d="M72.4,28.4c-0.8-0.8-1.7-1.4-2.9-1.9c-1.1-0.5-2.3-0.7-3.7-0.7H62v18.5h3.6c1.3,0,2.6-0.2,3.7-0.7
		s2.1-1.1,2.9-1.9c0.8-0.8,1.5-1.8,1.9-2.9c0.5-1.1,0.7-2.4,0.7-3.8c0-1.3-0.2-2.6-0.6-3.7C73.8,30.2,73.2,29.2,72.4,28.4z"/>
	<path class="st0" d="M0,0v100h100V0H0z M50.9,78.4c0.4,0,0.7,0.3,0.7,0.7c0,0.4-0.3,0.7-0.7,0.7s-0.7-0.3-0.7-0.7
		C50.1,78.7,50.5,78.4,50.9,78.4z M18.3,19.1C19,18.3,20,18,21.1,18h11.8c1.1,0,2,0.4,2.8,1.1c0.8,0.8,1.1,1.7,1.1,2.8v26.8
		c0,1.1-0.4,2.1-1.2,2.8s-1.7,1.1-2.8,1.1c-1.1,0-2-0.4-2.8-1.1c-0.8-0.7-1.1-1.7-1.1-2.8V39h-7.3c-1.1,0-2.1-0.4-2.8-1.1
		c-0.7-0.8-1.1-1.7-1.1-2.8s0.4-2,1.1-2.8s1.7-1.1,2.8-1.1h7.3V26h-7.8c-1.1,0-2.1-0.4-2.8-1.2c-0.7-0.8-1.1-1.7-1.1-2.8
		C17.2,20.8,17.6,19.8,18.3,19.1z M23.4,85c-0.3,0.1-1.2,0.3-1.9,0.3c-2.7,0-3.8-1.8-3.8-3.4c0-2.1,1.6-3.5,4-3.5
		c0.8,0,1.6,0.2,1.9,0.3c0.1,0.6,0.2,1,0.2,1.7l-0.4,0.1c-0.3-1.2-1.1-1.6-1.9-1.6c-1.5,0-2.3,1.4-2.3,2.9c0,1.9,1,3.1,2.4,3.1
		c0.8,0,1.5-0.5,2-1.6l0.4,0.2C23.8,83.9,23.6,84.7,23.4,85z M26.8,85.3c-1.6,0-2.4-1.2-2.4-2.3c0-1.6,1.3-2.5,2.4-2.5
		c1.4,0,2.3,1.1,2.3,2.3C29.2,84.4,28,85.3,26.8,85.3z M31.1,85.3c-0.5,0-1.1-0.2-1.3-0.3c-0.1-0.2-0.2-0.9-0.2-1.4h0.3
		c0.2,0.6,0.7,1.3,1.3,1.3c0.3,0,0.6-0.2,0.6-0.6c0-0.3-0.1-0.5-0.8-0.8c-0.5-0.2-1.3-0.6-1.3-1.5c0-0.8,0.6-1.4,1.7-1.4
		c0.5,0,0.7,0.1,1,0.2c0.1,0.2,0.2,1,0.2,1.2l-0.3,0.1c-0.3-0.6-0.6-1-1.1-1c-0.3,0-0.5,0.2-0.5,0.5s0.2,0.6,0.8,0.8
		c0.8,0.4,1.4,0.7,1.4,1.5C33,84.8,32,85.3,31.1,85.3z M35.5,85.1c-0.2,0.1-0.3,0.1-0.4,0.1c-0.8,0-1.2-0.4-1.2-1.3V81h-0.6l-0.2,0
		l0.3-0.4h0.4v-0.7l1.2-0.8l0.1,0.1v1.5h1c0.1,0.1,0.1,0.4-0.1,0.5h-0.9v2.5c0,0.8,0.4,0.9,0.6,0.9c0.2,0,0.3,0,0.5-0.1l0.1,0.4
		L35.5,85.1z M39.8,85.3c-0.3,0-0.5-0.1-0.6-0.2s-0.2-0.3-0.3-0.4c-0.4,0.3-0.9,0.6-1.1,0.6c-0.9,0-1.4-0.7-1.4-1.3
		c0-0.5,0.2-0.8,0.8-1s1.4-0.5,1.6-0.7V82c0-0.6-0.2-1-0.6-1c-0.1,0-0.2,0.1-0.3,0.2s-0.2,0.4-0.3,0.7c-0.1,0.3-0.2,0.3-0.4,0.3
		c-0.3,0-0.6-0.2-0.6-0.5c0-0.2,0.1-0.3,0.4-0.5c0.4-0.3,1.1-0.6,1.7-0.7c0.4,0,0.7,0.1,1,0.3c0.4,0.3,0.5,0.8,0.5,1.3v1.7
		c0,0.5,0.2,0.6,0.3,0.6s0.2,0,0.3-0.1l0.1,0.3L39.8,85.3z M41.5,48.5V21.6c0-1.1,0.4-2,1.2-2.8c0.8-0.7,1.7-1.1,2.8-1.1
		s2.1,0.4,2.8,1.1c0.8,0.7,1.1,1.7,1.1,2.8v26.9c0,1.1-0.4,2-1.1,2.8c-0.8,0.7-1.7,1.1-2.8,1.1s-2-0.4-2.8-1.1
		C41.9,50.6,41.5,49.6,41.5,48.5z M49.4,85.2c-0.1,0-0.2,0-0.3,0c-1.3-0.1-1.7-0.3-2.1-1c-0.3-0.4-0.5-1-0.8-1.5
		c-0.2-0.3-0.3-0.4-0.7-0.4h-0.2v1.5c0,0.8,0.1,0.9,0.9,1v0.4h-3.1v-0.4c0.8-0.1,0.9-0.2,0.9-1v-3.9c0-0.8-0.1-0.9-0.8-1v-0.4H46
		c0.9,0,1.4,0.1,1.8,0.4c0.4,0.3,0.7,0.7,0.7,1.4c0,0.9-0.6,1.4-1.3,1.7c0.1,0.3,0.5,1,0.8,1.4c0.4,0.6,0.6,0.9,0.8,1.1
		s0.4,0.4,0.6,0.4L49.4,85.2z M52.2,85.1h-2.6v-0.3c0.6-0.1,0.7-0.1,0.7-0.8v-2c0-0.7-0.1-0.7-0.6-0.8v-0.3c0.6-0.1,1.3-0.2,1.9-0.4
		V84c0,0.7,0.1,0.8,0.7,0.8v0.3H52.2z M54.7,85.3c-1.4,0-2.2-1.1-2.2-2.2c0-0.7,0.4-1.5,1-1.9c0.7-0.5,1.3-0.6,1.7-0.6
		s0.7,0.1,0.9,0.3c0.1,0.1,0.2,0.2,0.2,0.4c0,0.3-0.3,0.6-0.4,0.6c-0.1,0-0.1,0-0.2-0.1c-0.4-0.4-0.7-0.5-1-0.5
		c-0.4,0-0.9,0.4-0.9,1.5c0,1.4,1,1.8,1.4,1.8s0.7-0.1,1.1-0.4l0.2,0.2C56,84.8,55.3,85.3,54.7,85.3z M60.1,85.3
		c-0.3,0-0.5-0.1-0.6-0.2s-0.2-0.3-0.3-0.4c-0.4,0.3-0.9,0.6-1.1,0.6c-0.9,0-1.4-0.7-1.4-1.3c0-0.5,0.2-0.8,0.8-1s1.4-0.5,1.6-0.7
		V82c0-0.6-0.2-1-0.6-1c-0.1,0-0.2,0.1-0.3,0.2s-0.2,0.4-0.3,0.7c-0.1,0.3-0.2,0.3-0.4,0.3c-0.3,0-0.6-0.2-0.6-0.5
		c0-0.2,0.1-0.3,0.4-0.5c0.4-0.3,1.1-0.6,1.7-0.7c0.4,0,0.7,0.1,1,0.3c0.4,0.3,0.5,0.8,0.5,1.3v1.7c0,0.5,0.2,0.6,0.3,0.6
		s0.2,0,0.3-0.1l0.1,0.3L60.1,85.3z M67.4,85.1h-4.1v-0.3c0.5-0.5,1.1-1.1,1.6-1.7c0.7-0.8,1.1-1.6,1.1-2.4c0-0.7-0.4-1.2-1.1-1.2
		c-0.6,0-1,0.4-1.4,0.9l-0.3-0.2l0.7-1c0.4-0.4,0.9-0.6,1.5-0.6c1,0,1.9,0.7,1.9,1.8c0,0.8-0.4,1.4-1.4,2.4L64.7,84h1.7
		c0.6,0,0.7,0,1.1-0.7l0.3,0.1C67.6,84.1,67.5,84.7,67.4,85.1z M70.4,85.3c-1.7,0-2.3-1.8-2.3-3.3s0.6-3.3,2.3-3.3
		c1.7,0,2.3,1.8,2.3,3.3C72.7,83.4,72.1,85.3,70.4,85.3z M76.9,85.1h-3.1v-0.3c0.8-0.1,0.9-0.2,0.9-0.9v-3.7c0-0.5,0-0.6-0.5-0.6
		h-0.5v-0.3c0.7-0.1,1.4-0.3,2.3-0.5V84c0,0.7,0.1,0.9,0.9,0.9C76.9,84.9,76.9,85.1,76.9,85.1z M79.7,85.1l-1,0.1l-0.1-0.1
		c1.2-1.8,2.2-3.6,3.1-5.2h-2.2c-0.7,0-0.8,0.1-1.1,0.7H78c0.1-0.8,0.2-1.3,0.3-1.8h4.2l0.1,0.1C81.6,81,80.6,83,79.7,85.1z
		 M81.4,41.7c-0.9,2.1-2.1,3.9-3.7,5.5c-1.5,1.6-3.4,2.8-5.4,3.7c-2.1,0.9-4.3,1.4-6.7,1.4h-7.4c-0.5,0-1.1-0.1-1.6-0.3
		s-0.9-0.5-1.3-0.9c-0.4-0.4-0.7-0.8-0.9-1.3s-0.3-1-0.3-1.6V22.3c0-1.3,0.4-2.3,1.3-3.2c0.8-0.8,1.9-1.2,3.1-1.2h7.1
		c2.4,0,4.6,0.5,6.7,1.4s3.9,2.2,5.4,3.7c1.5,1.6,2.8,3.4,3.7,5.4c0.9,2.1,1.3,4.3,1.3,6.6C82.8,37.4,82.3,39.6,81.4,41.7z"/>
</g>
</svg>
