<?xml version="1.0" encoding="utf-8"?>
<!-- Generator: Adobe Illustrator 21.0.0, SVG Export Plug-In . SVG Version: 6.00 Build 0)  -->
<svg version="1.1" id="Arte" xmlns="http://www.w3.org/2000/svg" xmlns:xlink="http://www.w3.org/1999/xlink" x="0px" y="0px"
	 viewBox="0 0 100 100" style="enable-background:new 0 0 100 100;" xml:space="preserve">
<style type="text/css">
	.st0{fill:#FF0000;}
	.st1{fill:#FFFFFF;}
</style>
<rect id="Fondo" class="st0" width="100" height="100"/>
<path id="Tw" class="st1" d="M71,37c-1.5,0.7-3.2,1.1-4.9,1.4c1.8-1.1,3.1-2.8,3.8-4.8c-1.7,1-3.5,1.7-5.5,2.1
	C62.8,34,60.5,33,58.1,33c-4.8,0-8.6,3.9-8.6,8.6c0,0.7,0.1,1.3,0.2,2c-7.2-0.4-13.5-3.8-17.7-9c-0.7,1.3-1.2,2.7-1.2,4.3
	c0,3,1.5,5.6,3.8,7.2c-1.4,0-2.7-0.4-3.9-1.1v0.1c0,4.2,3,7.6,6.9,8.4c-0.7,0.2-1.5,0.3-2.3,0.3c-0.6,0-1.1-0.1-1.6-0.2
	c1.1,3.4,4.3,5.9,8,6c-2.9,2.3-6.7,3.7-10.7,3.7c-0.7,0-1.4,0-2.1-0.1c3.8,2.4,8.3,3.9,13.2,3.9C58,67,66.7,53.9,66.7,42.6
	c0-0.4,0-0.7,0-1.1C68.4,40.2,69.8,38.7,71,37z"/>
</svg>
